<?xml version="1.0" encoding="iso-8859-1"?>
<!-- Generator: Adobe Illustrator 18.0.0, SVG Export Plug-In . SVG Version: 6.00 Build 0)  -->
<!DOCTYPE svg PUBLIC "-//W3C//DTD SVG 1.1//EN" "http://www.w3.org/Graphics/SVG/1.1/DTD/svg11.dtd">
<svg version="1.1" id="Capa_1" xmlns="http://www.w3.org/2000/svg" xmlns:xlink="http://www.w3.org/1999/xlink" x="0px" y="0px"
	 viewBox="0 0 488.443 488.443" style="enable-background:new 0 0 488.443 488.443;" xml:space="preserve">
<path id="XMLID_541_" d="M427.228,167.523c0-19.55-15.854-35.408-35.416-35.415v-10.431c0-2.615-2.127-4.742-4.744-4.742h-92.24
	V40.166c0-2.622-2.127-4.749-4.753-4.749h-10.417C279.658,15.858,263.782,0,244.222,0c-19.558,0-35.418,15.858-35.418,35.417H198.4
	c-2.619,0-4.746,2.127-4.746,4.749v76.769h-92.258c-2.619,0-4.744,2.127-4.744,4.742v10.431h-0.02
	c-19.556,0-35.418,15.855-35.418,35.415c0,19.567,15.862,35.426,35.418,35.426h0.02v10.422c0,2.612,2.125,4.743,4.744,4.743h92.258
	v230.155c0,2.621,2.127,4.752,4.746,4.752h10.404c0,19.568,15.86,35.422,35.418,35.422c19.559,0,35.436-15.855,35.436-35.422h10.417
	c2.626,0,4.753-2.131,4.753-4.752V218.113h92.24c2.617,0,4.744-2.131,4.744-4.743v-10.422
	C411.375,202.939,427.228,187.081,427.228,167.523z"/>
<g>
</g>
<g>
</g>
<g>
</g>
<g>
</g>
<g>
</g>
<g>
</g>
<g>
</g>
<g>
</g>
<g>
</g>
<g>
</g>
<g>
</g>
<g>
</g>
<g>
</g>
<g>
</g>
<g>
</g>
</svg>
