<svg xmlns="http://www.w3.org/2000/svg">
    <symbol id="add" viewBox="0 0 52 52">
       <path d="M26,0C11.664,0,0,11.663,0,26s11.664,26,26,26s26-11.663,26-26S40.336,0,26,0z M38.5,28H28v11c0,1.104-0.896,2-2,2
	s-2-0.896-2-2V28H13.5c-1.104,0-2-0.896-2-2s0.896-2,2-2H24V14c0-1.104,0.896-2,2-2s2,0.896,2,2v10h10.5c1.104,0,2,0.896,2,2
	S39.604,28,38.5,28z"/>                
    </symbol>
    <symbol id="calendar" viewBox="0 0 485.213 485.212">
       <g> <path d="M60.652,75.816V15.163C60.652,6.781,67.433,0,75.817,0c8.38,0,15.161,6.781,15.161,15.163v60.653
		c0,8.38-6.781,15.161-15.161,15.161C67.433,90.978,60.652,84.196,60.652,75.816z M318.424,90.978
		c8.378,0,15.163-6.781,15.163-15.161V15.163C333.587,6.781,326.802,0,318.424,0c-8.382,0-15.168,6.781-15.168,15.163v60.653
		C303.256,84.196,310.042,90.978,318.424,90.978z M485.212,363.906c0,66.996-54.312,121.307-121.303,121.307
		c-66.986,0-121.302-54.311-121.302-121.307c0-66.986,54.315-121.3,121.302-121.3C430.9,242.606,485.212,296.919,485.212,363.906z
		 M454.89,363.906c0-50.161-40.81-90.976-90.98-90.976c-50.166,0-90.976,40.814-90.976,90.976c0,50.171,40.81,90.98,90.976,90.98
		C414.08,454.886,454.89,414.077,454.89,363.906z M121.305,181.955H60.652v60.651h60.653V181.955z M60.652,333.584h60.653V272.93
		H60.652V333.584z M151.629,242.606h60.654v-60.651h-60.654V242.606z M151.629,333.584h60.654V272.93h-60.654V333.584z
		 M30.328,360.891V151.628h333.582v60.653h30.327V94c0-18.421-14.692-33.349-32.843-33.349h-12.647v15.166
		c0,16.701-13.596,30.325-30.322,30.325c-16.731,0-30.326-13.624-30.326-30.325V60.651H106.14v15.166
		c0,16.701-13.593,30.325-30.322,30.325c-16.733,0-30.327-13.624-30.327-30.325V60.651H32.859C14.707,60.651,0.001,75.579,0.001,94
		v266.892c0,18.36,14.706,33.346,32.858,33.346h179.424v-30.331H32.859C31.485,363.906,30.328,362.487,30.328,360.891z
		 M303.256,242.606v-60.651h-60.648v60.651H303.256z M409.399,363.906h-45.49v-45.49c0-8.377-6.781-15.158-15.163-15.158
		s-15.159,6.781-15.159,15.158v60.658c0,8.378,6.777,15.163,15.159,15.163h60.653c8.382,0,15.163-6.785,15.163-15.163
		C424.562,370.692,417.781,363.906,409.399,363.906z"/> </g>                
    </symbol>
    <symbol id="cross" viewBox="0 0 488.443 488.443">
       <path id="XMLID_541_" d="M427.228,167.523c0-19.55-15.854-35.408-35.416-35.415v-10.431c0-2.615-2.127-4.742-4.744-4.742h-92.24
	V40.166c0-2.622-2.127-4.749-4.753-4.749h-10.417C279.658,15.858,263.782,0,244.222,0c-19.558,0-35.418,15.858-35.418,35.417H198.4
	c-2.619,0-4.746,2.127-4.746,4.749v76.769h-92.258c-2.619,0-4.744,2.127-4.744,4.742v10.431h-0.02
	c-19.556,0-35.418,15.855-35.418,35.415c0,19.567,15.862,35.426,35.418,35.426h0.02v10.422c0,2.612,2.125,4.743,4.744,4.743h92.258
	v230.155c0,2.621,2.127,4.752,4.746,4.752h10.404c0,19.568,15.86,35.422,35.418,35.422c19.559,0,35.436-15.855,35.436-35.422h10.417
	c2.626,0,4.753-2.131,4.753-4.752V218.113h92.24c2.617,0,4.744-2.131,4.744-4.743v-10.422
	C411.375,202.939,427.228,187.081,427.228,167.523z"/>                
    </symbol>
    <symbol id="home" viewBox="0 0 27.02 27.02">
       <g> <path d="M3.674,24.876c0,0-0.024,0.604,0.566,0.604c0.734,0,6.811-0.008,6.811-0.008l0.01-5.581
		c0,0-0.096-0.92,0.797-0.92h2.826c1.056,0,0.991,0.92,0.991,0.92l-0.012,5.563c0,0,5.762,0,6.667,0
		c0.749,0,0.715-0.752,0.715-0.752V14.413l-9.396-8.358l-9.975,8.358C3.674,14.413,3.674,24.876,3.674,24.876z"/> <path d="M0,13.635c0,0,0.847,1.561,2.694,0l11.038-9.338l10.349,9.28c2.138,1.542,2.939,0,2.939,0
		L13.732,1.54L0,13.635z"/> <polygon points="23.83,4.275 21.168,4.275 21.179,7.503 23.83,9.752 	"/> </g>                
    </symbol>
    <symbol id="list" viewBox="0 0 485.69 485.69">
       <g> <g> <g> <path d="M410.428,34.738h-76.405l5.155,23.852c0.634,2.961,0.603,5.934,0.271,8.859h54.621V452.98H91.588V67.449h54.637
				c-0.332-2.941-0.348-5.914,0.285-8.891l5.156-23.82H75.248c-9.031,0-16.34,7.324-16.34,16.354v418.243
				c0,9.016,7.309,16.354,16.34,16.354h335.18c9.031,0,16.354-7.341,16.354-16.354V51.093
				C426.783,42.062,419.459,34.738,410.428,34.738z"/> <path d="M355.568,152.949h-111.71c-9.047,0-16.355,7.324-16.355,16.34c0,9.035,7.309,16.355,16.355,16.355h111.71
				c9.047,0,16.354-7.32,16.354-16.355C371.924,160.273,364.615,152.949,355.568,152.949z"/> <path d="M355.568,253.254h-111.71c-9.047,0-16.355,7.323-16.355,16.354c0,9.021,7.309,16.357,16.355,16.357h111.71
				c9.047,0,16.354-7.34,16.354-16.357C371.924,260.577,364.615,253.254,355.568,253.254z"/> <path d="M119.556,156.792c-6.898,5.82-7.786,16.137-1.965,23.047l23.855,28.27c3.117,3.699,7.688,5.805,12.496,5.805
				c0.398,0,0.792-0.016,1.203-0.047c5.219-0.379,9.949-3.258,12.703-7.719l42.914-69.477c4.746-7.688,2.375-17.75-5.312-22.492
				c-7.688-4.777-17.75-2.375-22.497,5.313l-31.066,50.273l-9.301-11.012C136.763,151.843,126.467,150.956,119.556,156.792z"/> <path d="M158.72,245.094c-13.554,0-24.535,10.978-24.535,24.517c0,13.543,10.98,24.52,24.535,24.52
				c13.543,0,24.52-10.977,24.52-24.52C183.24,256.07,172.263,245.094,158.72,245.094z"/> <path d="M355.568,351.359h-111.71c-9.047,0-16.355,7.309-16.355,16.358c0,9.017,7.309,16.34,16.355,16.34h111.71
				c9.047,0,16.354-7.323,16.354-16.34C371.924,358.667,364.615,351.359,355.568,351.359z"/> <path d="M158.72,343.199c-13.554,0-24.535,10.977-24.535,24.52c0,13.539,10.98,24.521,24.535,24.521
				c13.543,0,24.52-10.979,24.52-24.521C183.24,354.176,172.263,343.199,158.72,343.199z"/> <path d="M173.463,75.613h138.73c3.401,0,6.613-1.521,8.746-4.176c2.137-2.629,2.961-6.105,2.229-9.43L311.686,8.859
				C310.564,3.687,305.994,0,300.708,0H184.963c-5.281,0-9.852,3.688-10.977,8.859l-11.5,53.148
				c-0.695,3.324,0.125,6.801,2.247,9.43C166.868,74.093,170.08,75.613,173.463,75.613z"/> </g> </g> </g>                
    </symbol></svg>