<svg xmlns="http://www.w3.org/2000/svg">
    <symbol id="add" viewBox="0 0 52 52">
       <path d="M26,0C11.664,0,0,11.663,0,26s11.664,26,26,26s26-11.663,26-26S40.336,0,26,0z M38.5,28H28v11c0,1.104-0.896,2-2,2
	s-2-0.896-2-2V28H13.5c-1.104,0-2-0.896-2-2s0.896-2,2-2H24V14c0-1.104,0.896-2,2-2s2,0.896,2,2v10h10.5c1.104,0,2,0.896,2,2
	S39.604,28,38.5,28z"/>                
    </symbol>
    <symbol id="home" viewBox="0 0 27.02 27.02">
       <g> <path style="fill:#030104;" d="M3.674,24.876c0,0-0.024,0.604,0.566,0.604c0.734,0,6.811-0.008,6.811-0.008l0.01-5.581
		c0,0-0.096-0.92,0.797-0.92h2.826c1.056,0,0.991,0.92,0.991,0.92l-0.012,5.563c0,0,5.762,0,6.667,0
		c0.749,0,0.715-0.752,0.715-0.752V14.413l-9.396-8.358l-9.975,8.358C3.674,14.413,3.674,24.876,3.674,24.876z"/> <path style="fill:#030104;" d="M0,13.635c0,0,0.847,1.561,2.694,0l11.038-9.338l10.349,9.28c2.138,1.542,2.939,0,2.939,0
		L13.732,1.54L0,13.635z"/> <polygon style="fill:#030104;" points="23.83,4.275 21.168,4.275 21.179,7.503 23.83,9.752 	"/> </g>                
    </symbol>
    <symbol id="list" viewBox="0 0 485.69 485.69">
       <g> <g> <g> <path d="M410.428,34.738h-76.405l5.155,23.852c0.634,2.961,0.603,5.934,0.271,8.859h54.621V452.98H91.588V67.449h54.637
				c-0.332-2.941-0.348-5.914,0.285-8.891l5.156-23.82H75.248c-9.031,0-16.34,7.324-16.34,16.354v418.243
				c0,9.016,7.309,16.354,16.34,16.354h335.18c9.031,0,16.354-7.341,16.354-16.354V51.093
				C426.783,42.062,419.459,34.738,410.428,34.738z"/> <path d="M355.568,152.949h-111.71c-9.047,0-16.355,7.324-16.355,16.34c0,9.035,7.309,16.355,16.355,16.355h111.71
				c9.047,0,16.354-7.32,16.354-16.355C371.924,160.273,364.615,152.949,355.568,152.949z"/> <path d="M355.568,253.254h-111.71c-9.047,0-16.355,7.323-16.355,16.354c0,9.021,7.309,16.357,16.355,16.357h111.71
				c9.047,0,16.354-7.34,16.354-16.357C371.924,260.577,364.615,253.254,355.568,253.254z"/> <path d="M119.556,156.792c-6.898,5.82-7.786,16.137-1.965,23.047l23.855,28.27c3.117,3.699,7.688,5.805,12.496,5.805
				c0.398,0,0.792-0.016,1.203-0.047c5.219-0.379,9.949-3.258,12.703-7.719l42.914-69.477c4.746-7.688,2.375-17.75-5.312-22.492
				c-7.688-4.777-17.75-2.375-22.497,5.313l-31.066,50.273l-9.301-11.012C136.763,151.843,126.467,150.956,119.556,156.792z"/> <path d="M158.72,245.094c-13.554,0-24.535,10.978-24.535,24.517c0,13.543,10.98,24.52,24.535,24.52
				c13.543,0,24.52-10.977,24.52-24.52C183.24,256.07,172.263,245.094,158.72,245.094z"/> <path d="M355.568,351.359h-111.71c-9.047,0-16.355,7.309-16.355,16.358c0,9.017,7.309,16.34,16.355,16.34h111.71
				c9.047,0,16.354-7.323,16.354-16.34C371.924,358.667,364.615,351.359,355.568,351.359z"/> <path d="M158.72,343.199c-13.554,0-24.535,10.977-24.535,24.52c0,13.539,10.98,24.521,24.535,24.521
				c13.543,0,24.52-10.979,24.52-24.521C183.24,354.176,172.263,343.199,158.72,343.199z"/> <path d="M173.463,75.613h138.73c3.401,0,6.613-1.521,8.746-4.176c2.137-2.629,2.961-6.105,2.229-9.43L311.686,8.859
				C310.564,3.687,305.994,0,300.708,0H184.963c-5.281,0-9.852,3.688-10.977,8.859l-11.5,53.148
				c-0.695,3.324,0.125,6.801,2.247,9.43C166.868,74.093,170.08,75.613,173.463,75.613z"/> </g> </g> </g>                
    </symbol></svg>